<svg width="57" height="56" viewBox="0 0 57 56" fill="none" xmlns="http://www.w3.org/2000/svg">
<g id="Featured icon">
<rect x="0.333496" width="56" height="56" rx="10" fill="#308AFF"/>
<g id="&#240;&#159;&#166;&#134; icon &#34;Briefcase&#34;">
<path id="Vector" d="M31.9448 33C31.9448 33.5525 31.4973 34 30.9448 34H24.9448C24.3923 34 23.9448 33.5525 23.9448 33V30H11.9448V39C11.9448 40.6 13.3448 42 14.9448 42H40.9448C42.5448 42 43.9448 40.6 43.9448 39V30H31.9448V33ZM40.9448 20H35.9448V17C35.9448 15.4 34.5448 14 32.9448 14H22.9448C21.3448 14 19.9448 15.4 19.9448 17V20H14.9448C13.3448 20 11.9448 21.4 11.9448 23V28H43.9448V23C43.9448 21.4 42.5448 20 40.9448 20ZM31.9448 20H23.9448V18H31.9448V20Z" fill="white"/>
</g>
</g>
</svg>
