<svg width="56" height="56" viewBox="0 0 56 56" fill="none" xmlns="http://www.w3.org/2000/svg">
<g id="Featured icon">
<rect width="56" height="56" rx="10" fill="#308AFF"/>
<g id="&#240;&#159;&#166;&#134; icon &#34;Laptop&#34;">
<path id="Vector" d="M44.1205 36.7919H30.7978C30.7572 37.8804 29.9896 38.5503 28.9988 38.5503H25.658C24.631 38.5503 23.8436 37.5903 23.8574 36.7919H10.7122C10.2286 36.7919 9.83301 37.1876 9.83301 37.6711V38.5503C9.83301 40.4844 11.4155 42.0669 13.3497 42.0669H41.483C43.4172 42.0669 44.9997 40.4844 44.9997 38.5503V37.6711C44.9997 37.1876 44.6041 36.7919 44.1205 36.7919ZM41.483 16.5711C41.483 15.1205 40.2961 13.9336 38.8455 13.9336H15.9872C14.5365 13.9336 13.3497 15.1205 13.3497 16.5711V35.0336H41.483V16.5711ZM37.9663 31.5169H16.8663V17.4503H37.9663V31.5169Z" fill="white"/>
</g>
</g>
</svg>
