<svg width="57" height="56" viewBox="0 0 57 56" fill="none" xmlns="http://www.w3.org/2000/svg">
<g id="Featured icon">
<rect x="0.333496" width="56" height="56" rx="10" fill="#308AFF"/>
<path id="&#239;&#135;&#167;" d="M23.632 20.9161C25.8 20.9161 27.5855 22.5903 27.5855 24.6508C27.5855 26.7113 25.8 28.3854 23.632 28.3854C21.4639 28.3854 19.7422 26.7113 19.7422 24.6508C19.7422 22.5903 21.4639 20.9161 23.632 20.9161ZM32.8144 20.9161C34.9825 20.9161 36.7042 22.5903 36.7042 24.6508C36.7042 26.7113 34.9825 28.3854 32.8144 28.3854C30.6463 28.3854 28.8609 26.7113 28.8609 24.6508C28.8609 22.5903 30.6463 20.9161 32.8144 20.9161ZM42.7621 26.7113C43.7186 26.0674 44.3563 26.9688 43.7824 27.8703C42.6345 29.3513 40.4027 31.0898 37.023 32.5064C40.594 44.8694 28.287 46.8011 28.4783 40.4908C28.4783 40.4264 28.4145 37.0137 28.4145 34.4381C28.1594 34.4381 27.9043 34.3093 27.5855 34.245C27.5855 36.8206 27.5217 40.4264 27.5217 40.4908C27.7768 46.8011 15.406 44.8694 18.977 32.5064C15.5973 31.0898 13.3654 29.2869 12.2176 27.8703C11.6437 26.9688 12.2814 26.0674 13.2379 26.7113C13.3655 26.8401 13.493 26.9044 13.6205 26.9688V14.2195C13.6205 12.481 14.9596 11 16.5538 11H39.4462C41.1041 11 42.3795 12.481 42.3795 14.2195V26.9688L42.7621 26.7113ZM40.8491 27.9347V15.7005C40.8491 13.5756 40.1476 12.7385 38.2346 12.7385H17.9567C15.9799 12.7385 15.406 13.4468 15.406 15.7005V28.0635C19.6784 30.3815 23.3769 29.9308 25.4174 29.8664C26.2464 29.8664 26.8203 29.9952 27.1391 30.3815C27.2667 30.4459 27.7768 30.961 28.4145 31.4762C28.542 30.4459 29.0522 29.802 30.5826 29.8664C32.6231 29.9308 36.4491 30.3815 40.8491 27.9347Z" fill="white"/>
</g>
</svg>
