<svg width="56" height="56" viewBox="0 0 56 56" fill="none" xmlns="http://www.w3.org/2000/svg">
<g id="Featured icon">
<rect width="56" height="56" rx="10" fill="#308AFF"/>
<g id="&#240;&#159;&#166;&#134; icon &#34;Desktop&#34;">
<path id="Vector" d="M40.5415 14H14.2915C12.8423 14 11.6665 15.1758 11.6665 16.625V34.125C11.6665 35.5742 12.8423 36.75 14.2915 36.75H24.7915L23.9165 39.375H19.979C19.2517 39.375 18.6665 39.9602 18.6665 40.6875C18.6665 41.4148 19.2517 42 19.979 42H34.854C35.5813 42 36.1665 41.4148 36.1665 40.6875C36.1665 39.9602 35.5813 39.375 34.854 39.375H30.9165L30.0415 36.75H40.5415C41.9907 36.75 43.1665 35.5742 43.1665 34.125V16.625C43.1665 15.1758 41.9907 14 40.5415 14ZM39.6665 33.25H15.1665V17.5H39.6665V33.25Z" fill="white"/>
</g>
</g>
</svg>
