<svg width="57" height="56" viewBox="0 0 57 56" fill="none" xmlns="http://www.w3.org/2000/svg">
<g id="Featured icon">
<rect x="0.666504" width="56" height="56" rx="10" fill="#308AFF"/>
<path id="&#239;&#135;&#188;" d="M24.1696 30.9531L28.9727 34.9453C28.9727 35.1094 29.0273 35.2734 29.0273 35.4375C29.0273 39.6484 26.1345 42 22.0409 42C17.0741 42 15.0546 38.0625 15 33.5781C15.5458 33.9062 17.4561 35.4375 18.0565 35.4375C18.384 35.4375 18.7115 35.2188 18.8207 34.8906C19.9669 31.9375 21.9318 31.0625 24.1696 30.9531ZM39.9981 14C41.5809 14 43 15.1484 43 16.7344C43 17.6094 42.6179 18.4844 42.2359 19.25C36.0682 30.7891 34.1033 33.25 30.6647 33.25C30.2827 33.25 29.846 33.1953 29.4639 33.0859L25.9708 30.1875C25.6979 29.5312 25.5341 28.8203 25.5341 28.1094C25.5341 25.1562 26.6803 24.9375 37.8148 14.9297C38.4152 14.3828 39.1793 14 39.9981 14Z" fill="white"/>
</g>
</svg>
