<svg width="48" height="48" viewBox="0 0 48 48" fill="none" xmlns="http://www.w3.org/2000/svg">
<g id="Group">
<path id="Vector" d="M19 37.3995C14.8 35.7995 10.2 35.7995 5.99999 37.3995C5.49999 37.5995 5.19999 38.1995 5.39999 38.6995C5.59999 39.0995 5.99999 39.4995 6.69999 39.2995C10.5 37.9995 14.6 37.8995 18.3 39.2995C18.8 39.4995 19.4 39.1995 19.6 38.6995C19.8 38.1995 19.5 37.5995 19 37.3995Z" fill="#F9FAFB"/>
<path id="Vector_2" d="M19 28.3995C14.8 26.7995 10.2 26.7995 5.99999 28.3995C5.49999 28.5995 5.19999 29.1995 5.39999 29.6995C5.59999 30.1995 6.19999 30.4995 6.69999 30.2995C10.4 28.8995 14.6 28.8995 18.3 30.2995C18.4 30.2995 19.2 30.5995 19.6 29.6995C19.8 29.1995 19.5 28.5995 19 28.3995Z" fill="#F9FAFB"/>
<path id="Vector_3" d="M6.69999 21.1994C10.4 19.7994 14.6 19.7994 18.3 21.1994C18.4 21.1994 19.2 21.4994 19.6 20.5994C19.9 20.0994 19.5 19.4994 19 19.2994C14.8 17.6994 10.2 17.6994 5.99999 19.2994C5.49999 19.4994 5.19999 20.0994 5.39999 20.5994C5.59999 21.1994 6.19999 21.3994 6.69999 21.1994Z" fill="#F9FAFB"/>
<path id="Vector_4" d="M47.4 2.5994C37.5 -2.0006 28.1 0.499398 24 2.3994C12.5 -2.6006 2.3 1.7994 0.6 2.5994C0.2 2.7994 0 3.0994 0 3.4994V46.9994C0 47.6994 0.8 48.1994 1.4 47.8994C8.3 44.7994 16.4 44.5994 23.6 47.8994C23.8 47.9994 24.2 47.9994 24.4 47.8994C31.4 44.6994 39.4 44.5994 46.6 47.8994C47.3 48.1994 48 47.5994 48 46.9994V3.4994C48 3.0994 47.8 2.7994 47.4 2.5994ZM12.8 1.9994V10.3994L10.8 8.1994C10.4 7.7994 9.8 7.8994 10.1 7.8994C9.8 7.7994 9.5 7.9994 9.3 8.1994L7.3 10.3994V2.4994C9.2 2.1994 11 1.9994 12.8 1.9994ZM2 45.4994V4.1994C3.1 3.6994 4.2 3.2994 5.4 2.9994V12.9994C5.4 13.8994 6.5 14.2994 7.1 13.6994L10.1 10.3994L13.1 13.6994C13.7 14.3994 14.8 13.9994 14.8 12.9994V2.0994C17.6 2.2994 20.4 2.9994 23 4.0994V45.3994C16.3 42.8994 8.8 42.7994 2 45.4994ZM46 45.4994C39.4 42.8994 31.9 42.7994 25 45.4994V4.1994C31.7 1.2994 39.3 1.2994 46 4.1994V45.4994Z" fill="#F9FAFB"/>
<path id="Vector_5" d="M42 37.3995C37.8 35.7995 33.2 35.7995 29 37.3995C28.5 37.5995 28.2 38.1995 28.4 38.6995C28.8 39.4995 29.6 39.2995 29.7 39.2995C33.4 37.8995 37.6 37.8995 41.3 39.2995C41.8 39.4995 42.4 39.1995 42.6 38.6995C42.8 38.1995 42.5 37.5995 42 37.3995Z" fill="#F9FAFB"/>
<path id="Vector_6" d="M42 28.3995C37.8 26.7995 33.2 26.7995 29 28.3995C28.5 28.5995 28.2 29.1995 28.4 29.6995C28.6 30.0995 29 30.4995 29.7 30.2995C33.5 28.9995 37.6 28.8995 41.3 30.2995C41.8 30.4995 42.4 30.1995 42.6 29.6995C42.8 29.1995 42.5 28.5995 42 28.3995Z" fill="#F9FAFB"/>
<path id="Vector_7" d="M42 19.3995C37.8 17.7995 33.2 17.7995 29 19.3995C28.5 19.5995 28.2 20.1995 28.4 20.6995C28.6 21.1995 29.2 21.4995 29.7 21.2995C33.4 19.8995 37.6 19.8995 41.3 21.2995C41.4 21.2995 42.2 21.5995 42.6 20.6995C42.8 20.1995 42.5 19.5995 42 19.3995Z" fill="#F9FAFB"/>
<path id="Vector_8" d="M28.4 11.5994C28.6 12.0994 29.2 12.3994 29.7 12.1994C33.4 10.7994 37.6 10.7994 41.3 12.1994C41.4 12.1994 42.2 12.4994 42.6 11.5994C42.9 11.0994 42.5 10.4994 42 10.2994C37.8 8.69937 33.2 8.69937 29 10.2994C28.5 10.4994 28.2 11.0994 28.4 11.5994Z" fill="#F9FAFB"/>
</g>
</svg>
