<svg width="56" height="56" viewBox="0 0 56 56" fill="none" xmlns="http://www.w3.org/2000/svg">
<g id="noun-international-5790959 1">
<path id="Vector" d="M7.49999 41.4322C6.04478 39.2093 4.97112 36.7838 4.30419 34.2148C5.85125 33.2825 8.01867 33.3778 9.28075 34.504C10.0635 35.2064 11.1222 35.4909 12.2663 35.3094C16.2341 34.4741 17.0741 30.6411 15.8855 26.6795C14.9907 23.5483 12.6147 19.4074 15.7556 16.8198C16.3572 16.4212 17.2925 16.3973 18.0303 16.7609C18.3444 16.9151 18.8776 17.2702 18.9237 17.9098C19.2646 22.8338 23.8973 26.9238 28.8127 26.6589C30.4113 26.6966 31.136 28.3691 31.0951 29.7256C30.6618 33.5116 26.2895 36.203 26.4553 40.265C26.449 42.6195 28.7666 45.2206 31.2135 44.5724C34.8117 43.6915 39.0137 45.3979 41.3221 48.583C36.2755 51.8887 30.0267 53.1928 24.0596 52.2043C22.9296 52.0333 22.6391 53.7263 23.776 53.9313C43.5471 57.2975 59.8025 37.3331 52.5236 18.6707C52.0913 17.6058 50.4945 18.222 50.8915 19.3022C51.5709 21.059 52.0395 22.8974 52.2869 24.7743C49.8308 26.4222 47.0668 30.3085 43.9517 28.0287C43.6377 27.7698 43.2737 27.3327 43.322 26.7213C43.4053 25.6839 42.9542 23.8352 38.9983 23.1128C37.9413 22.9252 36.9022 22.3711 36.5813 21.8242C36.4715 21.6375 36.4536 21.4734 36.5237 21.2713C37.3273 18.9027 36.1614 16.0666 33.9264 14.9498C31.6919 13.827 28.7269 14.5969 27.3152 16.6661C26.9431 17.2138 26.3052 17.3163 25.9583 17.3283C25.1055 17.3454 24.2117 16.9596 23.7229 16.3384C21.1802 12.3855 24.9922 8.07334 23.8631 3.87687C28.2133 3.1356 32.675 3.57652 36.7296 5.12956C37.7992 5.52748 38.4287 3.92392 37.3559 3.49576C13.804 -5.54754 -7.7684 21.312 6.03587 42.3913C6.67257 43.3367 8.11928 42.4015 7.49999 41.4322ZM22.1484 4.25561C22.6841 6.5339 21.6881 8.84809 21.2984 11.1285C20.8168 13.7527 21.1787 15.9269 22.3464 17.4189C23.7734 19.3277 27.3697 19.7988 28.7619 17.6507C31.1744 14.4665 35.9569 16.8792 34.8685 20.704C34.0464 22.9866 36.8819 24.5769 38.6881 24.8349C39.3883 24.9627 41.6669 25.4669 41.5776 26.5824C41.35 28.8856 43.8472 30.5289 46.0081 30.4737C48.6688 30.4307 50.5744 28.3614 52.4697 26.8282C52.8921 34.8986 49.186 42.7183 42.75 47.5705C40.0182 43.7683 35.1422 41.8079 30.796 42.8733C29.258 43.1261 28.2747 41.5255 28.2051 40.2334C28.304 36.405 32.6155 33.8635 32.8403 29.8559C33.0557 27.5126 31.2024 24.7502 28.7187 24.9114C24.7932 25.1332 20.9424 21.7276 20.6694 17.7863C20.5895 16.681 19.9093 15.735 18.8032 15.1907C14.5601 13.2543 11.8611 17.8739 12.5152 21.4277C12.9172 24.7449 15.865 29.2299 14.0679 32.1827C13.3715 33.304 11.7035 34.1728 10.448 33.2001C8.74728 31.6823 6.05045 31.4442 3.91667 32.4601C1.45921 19.9186 9.79803 7.1799 22.1484 4.25561Z" fill="#F9FAFB"/>
<path id="Vector_2" d="M54.2539 10.5253C54.2539 5.7005 50.3288 1.77539 45.5039 1.77539C40.679 1.77539 36.7539 5.7005 36.7539 10.5254C37.2343 22.1335 53.7752 22.1301 54.2539 10.5253ZM52.5039 10.5254C52.5039 14.3851 49.3636 17.5254 45.5039 17.5254C41.6442 17.5254 38.5039 14.3851 38.5039 10.5254C38.8885 1.23893 52.1207 1.24165 52.5039 10.5254Z" fill="#F9FAFB"/>
<path id="Vector_3" d="M44.2789 13.6759C44.6456 13.9514 45.1666 13.8973 45.4684 13.5456L49.6682 8.6459C50.407 7.77555 49.0911 6.64132 48.3395 7.50686L44.6733 11.784L42.5289 10.1763C41.6121 9.49344 40.5654 10.8862 41.4788 11.576C41.4788 11.576 44.2789 13.6759 44.2789 13.6759Z" fill="#F9FAFB"/>
<path id="Vector_4" d="M7.87891 45.5271C7.87891 50.352 11.804 54.2771 16.6289 54.2771C21.4538 54.2771 25.3789 50.352 25.3789 45.5271C24.8985 33.919 8.35758 33.9223 7.87891 45.5271ZM9.62891 45.527C9.62891 41.6673 12.7692 38.5271 16.6289 38.5271C20.4886 38.5271 23.6289 41.6673 23.6289 45.5271C23.2443 54.8135 10.0121 54.8108 9.62891 45.527Z" fill="#F9FAFB"/>
<path id="Vector_5" d="M19.4645 42.5068C19.4646 42.5067 15.7984 46.7839 15.7984 46.7839L13.654 45.1762C12.7357 44.4933 11.6914 45.8861 12.6039 46.5758C12.6039 46.5758 15.404 48.6757 15.404 48.6757C15.7706 48.9513 16.2918 48.8971 16.5935 48.5454L20.7933 43.6458C21.5329 42.775 20.2155 41.6416 19.4645 42.5068Z" fill="#F9FAFB"/>
</g>
</svg>
