<svg width="56" height="56" viewBox="0 0 56 56" fill="none" xmlns="http://www.w3.org/2000/svg">
<g id="noun-pakistan-264183 1">
<g id="Group">
<g id="Vector">
<mask id="path-1-outside-1_1477_48433" maskUnits="userSpaceOnUse" x="1.80005" y="3.65234" width="52" height="48" fill="black">
<rect fill="white" x="1.80005" y="3.65234" width="52" height="48"/>
<path fill-rule="evenodd" clip-rule="evenodd" d="M45.2832 4.65611C45.2348 4.65707 45.1868 4.66654 45.1417 4.6841L43.1333 5.4699L38.8725 5.55883C38.8086 5.56015 38.7459 5.57624 38.6894 5.60586L36.7931 6.59912C36.7759 6.60821 36.7593 6.6185 36.7435 6.62992L34.486 8.25533C34.433 8.29349 34.3898 8.34365 34.36 8.40173C34.3301 8.4598 34.3145 8.52412 34.3143 8.58941C34.3142 8.6547 34.3295 8.7191 34.359 8.77733C34.3886 8.83555 34.4315 8.88595 34.4843 8.92437L35.3636 9.56401L35.8861 11.3555L33.7186 13.4397C33.6594 13.4967 33.6185 13.57 33.6012 13.6504C33.5839 13.7308 33.5909 13.8145 33.6214 13.8908L33.9346 14.6738L33.7626 15.4192L32.4687 15.4912L30.6844 15.4019C30.6089 15.3981 30.5338 15.4152 30.4673 15.4511C30.4008 15.4871 30.3455 15.5406 30.3073 15.6058C30.2692 15.6711 30.2496 15.7456 30.2509 15.8211C30.2521 15.8967 30.2741 15.9705 30.3143 16.0345L31.575 18.0367L29.5316 18.7665C29.4698 18.7886 29.4141 18.8251 29.3692 18.873C29.3243 18.9209 29.2915 18.9788 29.2735 19.0419L28.7317 20.9383C28.7228 20.9694 28.7176 21.0014 28.7162 21.0337L28.6335 22.9352L27.521 23.9168L27.1633 23.5588C27.1044 23.5 27.0292 23.4604 26.9474 23.4451L25.5026 23.1741C25.4396 23.1623 25.3747 23.1653 25.3131 23.1829C25.2515 23.2005 25.1948 23.2322 25.1475 23.2755L24.0639 24.2688C24.0042 24.3235 23.9619 24.3945 23.9423 24.4731L23.8346 24.9036L21.4258 25.0643C21.3518 25.0692 21.2805 25.094 21.2194 25.1361L19.7746 26.1294C19.7233 26.1646 19.6807 26.211 19.6498 26.2651C19.619 26.3191 19.6008 26.3794 19.5966 26.4415L19.3451 30.1299L15.8251 31.1941L14.7439 31.0278C14.6738 31.0172 14.6023 31.0247 14.536 31.0497L13.193 31.5532L11.585 31.2993C11.5383 31.2912 11.4905 31.2912 11.4438 31.2993L8.21394 31.9103L3.3542 30.1431C3.27108 30.1129 3.18046 30.1102 3.09567 30.1353C3.01087 30.1604 2.93639 30.2121 2.88318 30.2828C2.82996 30.3534 2.80083 30.4393 2.80006 30.5277C2.7993 30.6161 2.82694 30.7025 2.87893 30.774L4.31219 32.7447L5.47606 34.7143C5.5219 34.7919 5.59186 34.8524 5.67528 34.8865L7.65459 35.6961L8.42263 36.0454L8.76159 39.6896C8.77034 39.7832 8.81078 39.8711 8.87623 39.9386C8.94168 40.0062 9.02821 40.0493 9.12152 40.061L10.0815 40.181L9.75306 41.2759L7.47472 41.6828C7.40684 41.6949 7.34306 41.7238 7.28921 41.7669L5.93499 42.8505C5.86059 42.91 5.80902 42.9933 5.78901 43.0864L4.97639 46.8789C4.96245 46.944 4.96442 47.0114 4.98215 47.0755C4.99988 47.1397 5.03284 47.1985 5.07822 47.2472C5.1236 47.2958 5.18006 47.3328 5.2428 47.3549C5.30554 47.3771 5.37269 47.3837 5.43856 47.3743L6.69679 47.1945L11.4535 46.6561H13.9585C13.9767 46.6554 13.9948 46.6535 14.0127 46.6505L19.9275 45.8678L20.5634 46.6309L20.414 47.5277C20.4011 47.6052 20.4105 47.6848 20.4413 47.7571C20.472 47.8294 20.5227 47.8915 20.5874 47.936L21.9443 48.8687L23.0704 51.1213C23.098 51.1764 23.1375 51.2246 23.186 51.2624C23.2346 51.3002 23.291 51.3268 23.3512 51.34C23.4113 51.3532 23.4736 51.3528 23.5336 51.3388C23.5936 51.3249 23.6496 51.2976 23.6977 51.2592L24.4454 50.6611L26.238 51.0684C26.3025 51.0831 26.3696 51.0821 26.4336 51.0654C26.4976 51.0487 26.5566 51.0169 26.6058 50.9727L27.3765 50.2791L30.5402 50.5355C30.5615 50.5372 30.5829 50.5372 30.6041 50.5355L33.0269 50.356H33.6437C33.7329 50.356 33.8197 50.3272 33.8911 50.2737C33.9625 50.2203 34.0147 50.1452 34.0399 50.0596L34.4914 48.5245C34.5221 48.4199 34.5102 48.3073 34.4583 48.2114L33.3269 46.1226L33.243 44.9474C33.239 44.892 33.2239 44.8379 33.1986 44.7884C33.1732 44.7389 33.1381 44.6951 33.0954 44.6595C33.0526 44.6239 33.0032 44.5973 32.9499 44.5813C32.8967 44.5653 32.8407 44.5602 32.7855 44.5663L32.2023 44.6311L31.7506 44.0506L31.5391 43.486L31.7047 42.3261C31.7173 42.2377 31.7009 42.1476 31.658 42.0693C31.6151 41.991 31.548 41.9287 31.4667 41.8918L29.7393 41.1066L29.8008 40.1222L31.3812 38.7912C31.4111 38.766 31.4372 38.7367 31.4589 38.7042L32.2513 37.5156L32.979 38.3038C33.041 38.3709 33.1234 38.4156 33.2135 38.4308C33.3035 38.4461 33.3961 38.431 33.4767 38.3881L34.749 37.7097L36.6422 37.6237C36.7157 37.6203 36.7869 37.5975 36.8485 37.5574C36.9102 37.5174 36.96 37.4616 36.9929 37.3958L37.621 36.1396L38.4659 34.6188L40.177 33.5921C40.2544 33.5456 40.3145 33.4751 40.348 33.3912L41.5538 30.3767L43.0389 29.6343C43.125 29.5912 43.1934 29.5193 43.2322 29.4311C43.271 29.3429 43.2777 29.244 43.2512 29.1513L43.1357 28.7472L45.0484 26.7512C45.1091 26.6879 45.1481 26.607 45.1597 26.5201L45.3404 25.1657C45.3449 25.1316 45.3451 25.0971 45.341 25.0629L45.1936 23.8115L47.5584 22.5883C47.6075 22.563 47.651 22.528 47.6864 22.4855C47.7217 22.443 47.7482 22.3938 47.7641 22.3409C47.7801 22.288 47.7853 22.2324 47.7794 22.1774C47.7735 22.1224 47.7567 22.0692 47.7298 22.0209L47.2783 21.2083C47.2446 21.1475 47.196 21.0962 47.1371 21.0592C47.0783 21.0222 47.011 21.0007 46.9416 20.9966L45.5932 20.9173L43.9109 18.7541L43.9878 17.8312C43.9928 17.7714 43.9846 17.7112 43.964 17.6548C43.9433 17.5984 43.9107 17.5473 43.8682 17.5048L43.5796 17.2165L44.1775 16.4194C44.216 16.368 44.242 16.3085 44.2535 16.2453C44.265 16.1822 44.2616 16.1173 44.2436 16.0557C44.2256 15.9941 44.1935 15.9376 44.1499 15.8906C44.1063 15.8435 44.0523 15.8073 43.9922 15.7848L43.4024 15.5636L42.9195 14.779L43.9357 13.695H44.3489L48.4634 14.4999C48.5469 14.5164 48.6335 14.5066 48.7112 14.4719L52.9551 12.5757C53.0105 12.551 53.0597 12.5144 53.0993 12.4685C53.139 12.4226 53.168 12.3685 53.1844 12.3101C53.2008 12.2518 53.2041 12.1905 53.1941 12.1307C53.1842 12.0709 53.1611 12.014 53.1267 11.9641L51.3206 9.34543C51.2866 9.2961 51.2422 9.25477 51.1906 9.22429C51.139 9.19382 51.0814 9.17493 51.0218 9.16896L50.2263 9.08949L49.6496 8.68586L49.844 7.97287C49.8716 7.87164 49.8596 7.76369 49.8105 7.67096L48.9979 6.13589C48.9628 6.06958 48.9102 6.01413 48.8459 5.97545C48.7816 5.93676 48.708 5.91631 48.633 5.91632H47.8306L45.4819 4.69839C45.4205 4.66666 45.352 4.65086 45.2829 4.65245L45.2832 4.65611ZM45.2683 5.52175L47.5402 6.69975C47.5989 6.73026 47.6642 6.7462 47.7303 6.74623H48.3847L49.0047 7.91716L48.7767 8.75296C48.7543 8.83502 48.7579 8.92198 48.7868 9.00196C48.8158 9.08193 48.8687 9.15099 48.9384 9.19975L49.8413 9.83194C49.8993 9.87251 49.9667 9.89752 50.0371 9.90454L50.7497 9.97594L52.165 12.0282L48.494 13.6686L44.4686 12.8809C44.4425 12.8758 44.416 12.8731 44.3894 12.8731H43.7572C43.7008 12.8731 43.6449 12.8847 43.5931 12.9071C43.5413 12.9296 43.4946 12.9624 43.456 13.0036L42.1013 14.4483C42.0394 14.5144 42.0009 14.5991 41.9918 14.6892C41.9827 14.7794 42.0035 14.87 42.051 14.9472L42.7734 16.1211C42.8215 16.1992 42.8942 16.2591 42.9801 16.2913L43.1864 16.3688L42.7045 17.0114C42.6448 17.0909 42.6159 17.1893 42.6229 17.2884C42.6299 17.3876 42.6725 17.4808 42.7428 17.5512L43.1491 17.9575L43.0747 18.8501C43.0661 18.9535 43.0967 19.0563 43.1604 19.1381L45.0566 21.5761C45.0927 21.6225 45.1383 21.6607 45.1903 21.688C45.2423 21.7154 45.2996 21.7313 45.3583 21.7348L46.6669 21.8119L46.8016 22.0542L44.5608 23.2133C44.4862 23.2518 44.4252 23.3122 44.3858 23.3863C44.3464 23.4605 44.3306 23.5449 44.3404 23.6282L44.515 25.1119L44.3589 26.2812L42.3754 28.351C42.3255 28.4031 42.2901 28.4674 42.2727 28.5375C42.2554 28.6075 42.2567 28.6809 42.2766 28.7503L42.3629 29.0528L41.0441 29.7121C40.9537 29.7573 40.8829 29.8341 40.8453 29.928L39.6329 32.9595L37.9461 33.9716C37.8841 34.0088 37.8329 34.0618 37.7977 34.125L36.8948 35.7504C36.8919 35.7556 36.889 35.7608 36.8863 35.7661L36.3627 36.8136L34.6183 36.8929C34.5569 36.8956 34.4969 36.9121 34.4426 36.941L33.3697 37.5133L32.5025 36.5736C32.4601 36.5277 32.4078 36.492 32.3496 36.4692C32.2915 36.4464 32.2289 36.4371 32.1666 36.442C32.1043 36.4469 32.0439 36.4659 31.99 36.4975C31.9361 36.5292 31.8901 36.5726 31.8554 36.6246L30.8044 38.201L29.1337 39.6078C29.0909 39.6438 29.0559 39.688 29.0308 39.7379C29.0057 39.7878 28.9909 39.8423 28.9875 39.898L28.8973 41.3427C28.8921 41.4262 28.9124 41.5093 28.9554 41.5811C28.9985 41.6528 29.0623 41.7098 29.1385 41.7445L30.8434 42.5193L30.7067 43.4773C30.6969 43.5458 30.7045 43.6158 30.7288 43.6806L30.9996 44.403C31.0143 44.4421 31.0347 44.4787 31.0603 44.5116L31.6925 45.3244C31.7358 45.3801 31.7927 45.4237 31.8577 45.4512C31.9228 45.4786 31.9937 45.489 32.0639 45.4813L32.4498 45.4381L32.5093 46.2739C32.5135 46.3325 32.5301 46.3895 32.5581 46.4411L33.651 48.4585L33.3348 49.5337H33.0116C33.0014 49.5333 32.9913 49.5333 32.9811 49.5337L30.5749 49.7119L27.266 49.4435C27.21 49.4389 27.1536 49.4459 27.1004 49.4639C27.0471 49.4819 26.9981 49.5106 26.9563 49.5482L26.2122 50.2178L24.4346 49.8137C24.374 49.7999 24.3111 49.8 24.2506 49.8139C24.19 49.8278 24.1334 49.8551 24.0849 49.8939L23.5808 50.2972L22.6355 48.4062C22.6042 48.3438 22.5576 48.2903 22.5 48.2508L21.2718 47.4063L21.4092 46.582C21.4189 46.5234 21.416 46.4634 21.4005 46.4061C21.3849 46.3487 21.3572 46.2954 21.3192 46.2497L20.4163 45.1661C20.3716 45.1126 20.3142 45.0712 20.2492 45.0458C20.1843 45.0205 20.114 45.012 20.0449 45.0211L13.9313 45.8303H11.4302C11.4147 45.8294 11.3992 45.8294 11.3838 45.8303L6.59806 46.3721C6.59403 46.3721 6.58999 46.3721 6.58596 46.3721L5.90825 46.4688L6.566 43.3995L7.72342 42.4736L10.1484 42.0405C10.2236 42.027 10.2936 41.993 10.3506 41.9422C10.4076 41.8913 10.4494 41.8257 10.4714 41.7525L11.013 39.9466C11.0302 39.8891 11.0347 39.8285 11.0262 39.7691C11.0176 39.7097 10.9962 39.6528 10.9635 39.6025C10.9307 39.5522 10.8874 39.5096 10.8365 39.4778C10.7856 39.446 10.7284 39.4256 10.6688 39.4181L9.55331 39.2788L9.22282 35.7263C9.21607 35.6538 9.19029 35.5844 9.14808 35.5251C9.10587 35.4657 9.04874 35.4187 8.98246 35.3885L7.98918 34.9371C7.98439 34.9349 7.97955 34.9329 7.97468 34.9309L6.11656 34.1709L5.01339 32.3038C5.00671 32.2926 4.99952 32.2818 4.99183 32.2713L4.34173 31.3774L8.03842 32.7216C8.10814 32.7471 8.18344 32.7532 8.25639 32.7395L11.527 32.1207L13.1718 32.3804C13.2423 32.3915 13.3145 32.3842 13.3813 32.3591L14.725 31.8552L15.7921 32.0193C15.8531 32.0287 15.9153 32.0243 15.9744 32.0064L19.8574 30.8327C19.9376 30.8084 20.0086 30.7602 20.0608 30.6946C20.113 30.6291 20.1441 30.5491 20.1498 30.4655L20.4071 26.6913L21.5939 25.8753L24.1898 25.7024C24.277 25.6966 24.3602 25.6632 24.4272 25.6072C24.4943 25.5511 24.5419 25.4752 24.5631 25.3904L24.7135 24.7885L25.5535 24.0187L26.6696 24.2279L27.2114 24.7697C27.2857 24.844 27.3856 24.8871 27.4906 24.8903C27.5956 24.8935 27.6979 24.8566 27.7766 24.7871L29.3117 23.4327C29.3534 23.3959 29.3872 23.3511 29.4111 23.301C29.4351 23.2508 29.4486 23.1964 29.451 23.1409L29.5392 21.1126L30.0094 19.4674L32.3379 18.6356C32.3961 18.6148 32.4489 18.5812 32.4924 18.5372C32.5359 18.4933 32.5689 18.4401 32.5891 18.3817C32.6093 18.3233 32.6162 18.2611 32.6091 18.1997C32.6021 18.1383 32.5813 18.0792 32.5484 18.0269L31.4366 16.2609L32.4492 16.3113C32.4637 16.312 32.4783 16.312 32.4928 16.3111L34.1182 16.2208C34.2075 16.2158 34.2928 16.182 34.3613 16.1244C34.4297 16.0668 34.4776 15.9885 34.4977 15.9013L34.7685 14.7274C34.7874 14.6454 34.7808 14.5594 34.7495 14.4812L34.4916 13.8366L36.6389 11.7719C36.6933 11.7197 36.7323 11.6535 36.7517 11.5807C36.7712 11.5078 36.7703 11.431 36.7492 11.3586L36.1171 9.19138C36.0915 9.1036 36.0375 9.02678 35.9636 8.97297L35.4317 8.58623L37.2023 7.31146L38.9866 6.37685L43.2239 6.28857C43.2725 6.28766 43.3205 6.27815 43.3658 6.26054L45.2683 5.51607V5.52175Z"/>
</mask>
<path fill-rule="evenodd" clip-rule="evenodd" d="M45.2832 4.65611C45.2348 4.65707 45.1868 4.66654 45.1417 4.6841L43.1333 5.4699L38.8725 5.55883C38.8086 5.56015 38.7459 5.57624 38.6894 5.60586L36.7931 6.59912C36.7759 6.60821 36.7593 6.6185 36.7435 6.62992L34.486 8.25533C34.433 8.29349 34.3898 8.34365 34.36 8.40173C34.3301 8.4598 34.3145 8.52412 34.3143 8.58941C34.3142 8.6547 34.3295 8.7191 34.359 8.77733C34.3886 8.83555 34.4315 8.88595 34.4843 8.92437L35.3636 9.56401L35.8861 11.3555L33.7186 13.4397C33.6594 13.4967 33.6185 13.57 33.6012 13.6504C33.5839 13.7308 33.5909 13.8145 33.6214 13.8908L33.9346 14.6738L33.7626 15.4192L32.4687 15.4912L30.6844 15.4019C30.6089 15.3981 30.5338 15.4152 30.4673 15.4511C30.4008 15.4871 30.3455 15.5406 30.3073 15.6058C30.2692 15.6711 30.2496 15.7456 30.2509 15.8211C30.2521 15.8967 30.2741 15.9705 30.3143 16.0345L31.575 18.0367L29.5316 18.7665C29.4698 18.7886 29.4141 18.8251 29.3692 18.873C29.3243 18.9209 29.2915 18.9788 29.2735 19.0419L28.7317 20.9383C28.7228 20.9694 28.7176 21.0014 28.7162 21.0337L28.6335 22.9352L27.521 23.9168L27.1633 23.5588C27.1044 23.5 27.0292 23.4604 26.9474 23.4451L25.5026 23.1741C25.4396 23.1623 25.3747 23.1653 25.3131 23.1829C25.2515 23.2005 25.1948 23.2322 25.1475 23.2755L24.0639 24.2688C24.0042 24.3235 23.9619 24.3945 23.9423 24.4731L23.8346 24.9036L21.4258 25.0643C21.3518 25.0692 21.2805 25.094 21.2194 25.1361L19.7746 26.1294C19.7233 26.1646 19.6807 26.211 19.6498 26.2651C19.619 26.3191 19.6008 26.3794 19.5966 26.4415L19.3451 30.1299L15.8251 31.1941L14.7439 31.0278C14.6738 31.0172 14.6023 31.0247 14.536 31.0497L13.193 31.5532L11.585 31.2993C11.5383 31.2912 11.4905 31.2912 11.4438 31.2993L8.21394 31.9103L3.3542 30.1431C3.27108 30.1129 3.18046 30.1102 3.09567 30.1353C3.01087 30.1604 2.93639 30.2121 2.88318 30.2828C2.82996 30.3534 2.80083 30.4393 2.80006 30.5277C2.7993 30.6161 2.82694 30.7025 2.87893 30.774L4.31219 32.7447L5.47606 34.7143C5.5219 34.7919 5.59186 34.8524 5.67528 34.8865L7.65459 35.6961L8.42263 36.0454L8.76159 39.6896C8.77034 39.7832 8.81078 39.8711 8.87623 39.9386C8.94168 40.0062 9.02821 40.0493 9.12152 40.061L10.0815 40.181L9.75306 41.2759L7.47472 41.6828C7.40684 41.6949 7.34306 41.7238 7.28921 41.7669L5.93499 42.8505C5.86059 42.91 5.80902 42.9933 5.78901 43.0864L4.97639 46.8789C4.96245 46.944 4.96442 47.0114 4.98215 47.0755C4.99988 47.1397 5.03284 47.1985 5.07822 47.2472C5.1236 47.2958 5.18006 47.3328 5.2428 47.3549C5.30554 47.3771 5.37269 47.3837 5.43856 47.3743L6.69679 47.1945L11.4535 46.6561H13.9585C13.9767 46.6554 13.9948 46.6535 14.0127 46.6505L19.9275 45.8678L20.5634 46.6309L20.414 47.5277C20.4011 47.6052 20.4105 47.6848 20.4413 47.7571C20.472 47.8294 20.5227 47.8915 20.5874 47.936L21.9443 48.8687L23.0704 51.1213C23.098 51.1764 23.1375 51.2246 23.186 51.2624C23.2346 51.3002 23.291 51.3268 23.3512 51.34C23.4113 51.3532 23.4736 51.3528 23.5336 51.3388C23.5936 51.3249 23.6496 51.2976 23.6977 51.2592L24.4454 50.6611L26.238 51.0684C26.3025 51.0831 26.3696 51.0821 26.4336 51.0654C26.4976 51.0487 26.5566 51.0169 26.6058 50.9727L27.3765 50.2791L30.5402 50.5355C30.5615 50.5372 30.5829 50.5372 30.6041 50.5355L33.0269 50.356H33.6437C33.7329 50.356 33.8197 50.3272 33.8911 50.2737C33.9625 50.2203 34.0147 50.1452 34.0399 50.0596L34.4914 48.5245C34.5221 48.4199 34.5102 48.3073 34.4583 48.2114L33.3269 46.1226L33.243 44.9474C33.239 44.892 33.2239 44.8379 33.1986 44.7884C33.1732 44.7389 33.1381 44.6951 33.0954 44.6595C33.0526 44.6239 33.0032 44.5973 32.9499 44.5813C32.8967 44.5653 32.8407 44.5602 32.7855 44.5663L32.2023 44.6311L31.7506 44.0506L31.5391 43.486L31.7047 42.3261C31.7173 42.2377 31.7009 42.1476 31.658 42.0693C31.6151 41.991 31.548 41.9287 31.4667 41.8918L29.7393 41.1066L29.8008 40.1222L31.3812 38.7912C31.4111 38.766 31.4372 38.7367 31.4589 38.7042L32.2513 37.5156L32.979 38.3038C33.041 38.3709 33.1234 38.4156 33.2135 38.4308C33.3035 38.4461 33.3961 38.431 33.4767 38.3881L34.749 37.7097L36.6422 37.6237C36.7157 37.6203 36.7869 37.5975 36.8485 37.5574C36.9102 37.5174 36.96 37.4616 36.9929 37.3958L37.621 36.1396L38.4659 34.6188L40.177 33.5921C40.2544 33.5456 40.3145 33.4751 40.348 33.3912L41.5538 30.3767L43.0389 29.6343C43.125 29.5912 43.1934 29.5193 43.2322 29.4311C43.271 29.3429 43.2777 29.244 43.2512 29.1513L43.1357 28.7472L45.0484 26.7512C45.1091 26.6879 45.1481 26.607 45.1597 26.5201L45.3404 25.1657C45.3449 25.1316 45.3451 25.0971 45.341 25.0629L45.1936 23.8115L47.5584 22.5883C47.6075 22.563 47.651 22.528 47.6864 22.4855C47.7217 22.443 47.7482 22.3938 47.7641 22.3409C47.7801 22.288 47.7853 22.2324 47.7794 22.1774C47.7735 22.1224 47.7567 22.0692 47.7298 22.0209L47.2783 21.2083C47.2446 21.1475 47.196 21.0962 47.1371 21.0592C47.0783 21.0222 47.011 21.0007 46.9416 20.9966L45.5932 20.9173L43.9109 18.7541L43.9878 17.8312C43.9928 17.7714 43.9846 17.7112 43.964 17.6548C43.9433 17.5984 43.9107 17.5473 43.8682 17.5048L43.5796 17.2165L44.1775 16.4194C44.216 16.368 44.242 16.3085 44.2535 16.2453C44.265 16.1822 44.2616 16.1173 44.2436 16.0557C44.2256 15.9941 44.1935 15.9376 44.1499 15.8906C44.1063 15.8435 44.0523 15.8073 43.9922 15.7848L43.4024 15.5636L42.9195 14.779L43.9357 13.695H44.3489L48.4634 14.4999C48.5469 14.5164 48.6335 14.5066 48.7112 14.4719L52.9551 12.5757C53.0105 12.551 53.0597 12.5144 53.0993 12.4685C53.139 12.4226 53.168 12.3685 53.1844 12.3101C53.2008 12.2518 53.2041 12.1905 53.1941 12.1307C53.1842 12.0709 53.1611 12.014 53.1267 11.9641L51.3206 9.34543C51.2866 9.2961 51.2422 9.25477 51.1906 9.22429C51.139 9.19382 51.0814 9.17493 51.0218 9.16896L50.2263 9.08949L49.6496 8.68586L49.844 7.97287C49.8716 7.87164 49.8596 7.76369 49.8105 7.67096L48.9979 6.13589C48.9628 6.06958 48.9102 6.01413 48.8459 5.97545C48.7816 5.93676 48.708 5.91631 48.633 5.91632H47.8306L45.4819 4.69839C45.4205 4.66666 45.352 4.65086 45.2829 4.65245L45.2832 4.65611ZM45.2683 5.52175L47.5402 6.69975C47.5989 6.73026 47.6642 6.7462 47.7303 6.74623H48.3847L49.0047 7.91716L48.7767 8.75296C48.7543 8.83502 48.7579 8.92198 48.7868 9.00196C48.8158 9.08193 48.8687 9.15099 48.9384 9.19975L49.8413 9.83194C49.8993 9.87251 49.9667 9.89752 50.0371 9.90454L50.7497 9.97594L52.165 12.0282L48.494 13.6686L44.4686 12.8809C44.4425 12.8758 44.416 12.8731 44.3894 12.8731H43.7572C43.7008 12.8731 43.6449 12.8847 43.5931 12.9071C43.5413 12.9296 43.4946 12.9624 43.456 13.0036L42.1013 14.4483C42.0394 14.5144 42.0009 14.5991 41.9918 14.6892C41.9827 14.7794 42.0035 14.87 42.051 14.9472L42.7734 16.1211C42.8215 16.1992 42.8942 16.2591 42.9801 16.2913L43.1864 16.3688L42.7045 17.0114C42.6448 17.0909 42.6159 17.1893 42.6229 17.2884C42.6299 17.3876 42.6725 17.4808 42.7428 17.5512L43.1491 17.9575L43.0747 18.8501C43.0661 18.9535 43.0967 19.0563 43.1604 19.1381L45.0566 21.5761C45.0927 21.6225 45.1383 21.6607 45.1903 21.688C45.2423 21.7154 45.2996 21.7313 45.3583 21.7348L46.6669 21.8119L46.8016 22.0542L44.5608 23.2133C44.4862 23.2518 44.4252 23.3122 44.3858 23.3863C44.3464 23.4605 44.3306 23.5449 44.3404 23.6282L44.515 25.1119L44.3589 26.2812L42.3754 28.351C42.3255 28.4031 42.2901 28.4674 42.2727 28.5375C42.2554 28.6075 42.2567 28.6809 42.2766 28.7503L42.3629 29.0528L41.0441 29.7121C40.9537 29.7573 40.8829 29.8341 40.8453 29.928L39.6329 32.9595L37.9461 33.9716C37.8841 34.0088 37.8329 34.0618 37.7977 34.125L36.8948 35.7504C36.8919 35.7556 36.889 35.7608 36.8863 35.7661L36.3627 36.8136L34.6183 36.8929C34.5569 36.8956 34.4969 36.9121 34.4426 36.941L33.3697 37.5133L32.5025 36.5736C32.4601 36.5277 32.4078 36.492 32.3496 36.4692C32.2915 36.4464 32.2289 36.4371 32.1666 36.442C32.1043 36.4469 32.0439 36.4659 31.99 36.4975C31.9361 36.5292 31.8901 36.5726 31.8554 36.6246L30.8044 38.201L29.1337 39.6078C29.0909 39.6438 29.0559 39.688 29.0308 39.7379C29.0057 39.7878 28.9909 39.8423 28.9875 39.898L28.8973 41.3427C28.8921 41.4262 28.9124 41.5093 28.9554 41.5811C28.9985 41.6528 29.0623 41.7098 29.1385 41.7445L30.8434 42.5193L30.7067 43.4773C30.6969 43.5458 30.7045 43.6158 30.7288 43.6806L30.9996 44.403C31.0143 44.4421 31.0347 44.4787 31.0603 44.5116L31.6925 45.3244C31.7358 45.3801 31.7927 45.4237 31.8577 45.4512C31.9228 45.4786 31.9937 45.489 32.0639 45.4813L32.4498 45.4381L32.5093 46.2739C32.5135 46.3325 32.5301 46.3895 32.5581 46.4411L33.651 48.4585L33.3348 49.5337H33.0116C33.0014 49.5333 32.9913 49.5333 32.9811 49.5337L30.5749 49.7119L27.266 49.4435C27.21 49.4389 27.1536 49.4459 27.1004 49.4639C27.0471 49.4819 26.9981 49.5106 26.9563 49.5482L26.2122 50.2178L24.4346 49.8137C24.374 49.7999 24.3111 49.8 24.2506 49.8139C24.19 49.8278 24.1334 49.8551 24.0849 49.8939L23.5808 50.2972L22.6355 48.4062C22.6042 48.3438 22.5576 48.2903 22.5 48.2508L21.2718 47.4063L21.4092 46.582C21.4189 46.5234 21.416 46.4634 21.4005 46.4061C21.3849 46.3487 21.3572 46.2954 21.3192 46.2497L20.4163 45.1661C20.3716 45.1126 20.3142 45.0712 20.2492 45.0458C20.1843 45.0205 20.114 45.012 20.0449 45.0211L13.9313 45.8303H11.4302C11.4147 45.8294 11.3992 45.8294 11.3838 45.8303L6.59806 46.3721C6.59403 46.3721 6.58999 46.3721 6.58596 46.3721L5.90825 46.4688L6.566 43.3995L7.72342 42.4736L10.1484 42.0405C10.2236 42.027 10.2936 41.993 10.3506 41.9422C10.4076 41.8913 10.4494 41.8257 10.4714 41.7525L11.013 39.9466C11.0302 39.8891 11.0347 39.8285 11.0262 39.7691C11.0176 39.7097 10.9962 39.6528 10.9635 39.6025C10.9307 39.5522 10.8874 39.5096 10.8365 39.4778C10.7856 39.446 10.7284 39.4256 10.6688 39.4181L9.55331 39.2788L9.22282 35.7263C9.21607 35.6538 9.19029 35.5844 9.14808 35.5251C9.10587 35.4657 9.04874 35.4187 8.98246 35.3885L7.98918 34.9371C7.98439 34.9349 7.97955 34.9329 7.97468 34.9309L6.11656 34.1709L5.01339 32.3038C5.00671 32.2926 4.99952 32.2818 4.99183 32.2713L4.34173 31.3774L8.03842 32.7216C8.10814 32.7471 8.18344 32.7532 8.25639 32.7395L11.527 32.1207L13.1718 32.3804C13.2423 32.3915 13.3145 32.3842 13.3813 32.3591L14.725 31.8552L15.7921 32.0193C15.8531 32.0287 15.9153 32.0243 15.9744 32.0064L19.8574 30.8327C19.9376 30.8084 20.0086 30.7602 20.0608 30.6946C20.113 30.6291 20.1441 30.5491 20.1498 30.4655L20.4071 26.6913L21.5939 25.8753L24.1898 25.7024C24.277 25.6966 24.3602 25.6632 24.4272 25.6072C24.4943 25.5511 24.5419 25.4752 24.5631 25.3904L24.7135 24.7885L25.5535 24.0187L26.6696 24.2279L27.2114 24.7697C27.2857 24.844 27.3856 24.8871 27.4906 24.8903C27.5956 24.8935 27.6979 24.8566 27.7766 24.7871L29.3117 23.4327C29.3534 23.3959 29.3872 23.3511 29.4111 23.301C29.4351 23.2508 29.4486 23.1964 29.451 23.1409L29.5392 21.1126L30.0094 19.4674L32.3379 18.6356C32.3961 18.6148 32.4489 18.5812 32.4924 18.5372C32.5359 18.4933 32.5689 18.4401 32.5891 18.3817C32.6093 18.3233 32.6162 18.2611 32.6091 18.1997C32.6021 18.1383 32.5813 18.0792 32.5484 18.0269L31.4366 16.2609L32.4492 16.3113C32.4637 16.312 32.4783 16.312 32.4928 16.3111L34.1182 16.2208C34.2075 16.2158 34.2928 16.182 34.3613 16.1244C34.4297 16.0668 34.4776 15.9885 34.4977 15.9013L34.7685 14.7274C34.7874 14.6454 34.7808 14.5594 34.7495 14.4812L34.4916 13.8366L36.6389 11.7719C36.6933 11.7197 36.7323 11.6535 36.7517 11.5807C36.7712 11.5078 36.7703 11.431 36.7492 11.3586L36.1171 9.19138C36.0915 9.1036 36.0375 9.02678 35.9636 8.97297L35.4317 8.58623L37.2023 7.31146L38.9866 6.37685L43.2239 6.28857C43.2725 6.28766 43.3205 6.27815 43.3658 6.26054L45.2683 5.51607V5.52175Z" fill="#F9FAFB"/>
<path fill-rule="evenodd" clip-rule="evenodd" d="M45.2832 4.65611C45.2348 4.65707 45.1868 4.66654 45.1417 4.6841L43.1333 5.4699L38.8725 5.55883C38.8086 5.56015 38.7459 5.57624 38.6894 5.60586L36.7931 6.59912C36.7759 6.60821 36.7593 6.6185 36.7435 6.62992L34.486 8.25533C34.433 8.29349 34.3898 8.34365 34.36 8.40173C34.3301 8.4598 34.3145 8.52412 34.3143 8.58941C34.3142 8.6547 34.3295 8.7191 34.359 8.77733C34.3886 8.83555 34.4315 8.88595 34.4843 8.92437L35.3636 9.56401L35.8861 11.3555L33.7186 13.4397C33.6594 13.4967 33.6185 13.57 33.6012 13.6504C33.5839 13.7308 33.5909 13.8145 33.6214 13.8908L33.9346 14.6738L33.7626 15.4192L32.4687 15.4912L30.6844 15.4019C30.6089 15.3981 30.5338 15.4152 30.4673 15.4511C30.4008 15.4871 30.3455 15.5406 30.3073 15.6058C30.2692 15.6711 30.2496 15.7456 30.2509 15.8211C30.2521 15.8967 30.2741 15.9705 30.3143 16.0345L31.575 18.0367L29.5316 18.7665C29.4698 18.7886 29.4141 18.8251 29.3692 18.873C29.3243 18.9209 29.2915 18.9788 29.2735 19.0419L28.7317 20.9383C28.7228 20.9694 28.7176 21.0014 28.7162 21.0337L28.6335 22.9352L27.521 23.9168L27.1633 23.5588C27.1044 23.5 27.0292 23.4604 26.9474 23.4451L25.5026 23.1741C25.4396 23.1623 25.3747 23.1653 25.3131 23.1829C25.2515 23.2005 25.1948 23.2322 25.1475 23.2755L24.0639 24.2688C24.0042 24.3235 23.9619 24.3945 23.9423 24.4731L23.8346 24.9036L21.4258 25.0643C21.3518 25.0692 21.2805 25.094 21.2194 25.1361L19.7746 26.1294C19.7233 26.1646 19.6807 26.211 19.6498 26.2651C19.619 26.3191 19.6008 26.3794 19.5966 26.4415L19.3451 30.1299L15.8251 31.1941L14.7439 31.0278C14.6738 31.0172 14.6023 31.0247 14.536 31.0497L13.193 31.5532L11.585 31.2993C11.5383 31.2912 11.4905 31.2912 11.4438 31.2993L8.21394 31.9103L3.3542 30.1431C3.27108 30.1129 3.18046 30.1102 3.09567 30.1353C3.01087 30.1604 2.93639 30.2121 2.88318 30.2828C2.82996 30.3534 2.80083 30.4393 2.80006 30.5277C2.7993 30.6161 2.82694 30.7025 2.87893 30.774L4.31219 32.7447L5.47606 34.7143C5.5219 34.7919 5.59186 34.8524 5.67528 34.8865L7.65459 35.6961L8.42263 36.0454L8.76159 39.6896C8.77034 39.7832 8.81078 39.8711 8.87623 39.9386C8.94168 40.0062 9.02821 40.0493 9.12152 40.061L10.0815 40.181L9.75306 41.2759L7.47472 41.6828C7.40684 41.6949 7.34306 41.7238 7.28921 41.7669L5.93499 42.8505C5.86059 42.91 5.80902 42.9933 5.78901 43.0864L4.97639 46.8789C4.96245 46.944 4.96442 47.0114 4.98215 47.0755C4.99988 47.1397 5.03284 47.1985 5.07822 47.2472C5.1236 47.2958 5.18006 47.3328 5.2428 47.3549C5.30554 47.3771 5.37269 47.3837 5.43856 47.3743L6.69679 47.1945L11.4535 46.6561H13.9585C13.9767 46.6554 13.9948 46.6535 14.0127 46.6505L19.9275 45.8678L20.5634 46.6309L20.414 47.5277C20.4011 47.6052 20.4105 47.6848 20.4413 47.7571C20.472 47.8294 20.5227 47.8915 20.5874 47.936L21.9443 48.8687L23.0704 51.1213C23.098 51.1764 23.1375 51.2246 23.186 51.2624C23.2346 51.3002 23.291 51.3268 23.3512 51.34C23.4113 51.3532 23.4736 51.3528 23.5336 51.3388C23.5936 51.3249 23.6496 51.2976 23.6977 51.2592L24.4454 50.6611L26.238 51.0684C26.3025 51.0831 26.3696 51.0821 26.4336 51.0654C26.4976 51.0487 26.5566 51.0169 26.6058 50.9727L27.3765 50.2791L30.5402 50.5355C30.5615 50.5372 30.5829 50.5372 30.6041 50.5355L33.0269 50.356H33.6437C33.7329 50.356 33.8197 50.3272 33.8911 50.2737C33.9625 50.2203 34.0147 50.1452 34.0399 50.0596L34.4914 48.5245C34.5221 48.4199 34.5102 48.3073 34.4583 48.2114L33.3269 46.1226L33.243 44.9474C33.239 44.892 33.2239 44.8379 33.1986 44.7884C33.1732 44.7389 33.1381 44.6951 33.0954 44.6595C33.0526 44.6239 33.0032 44.5973 32.9499 44.5813C32.8967 44.5653 32.8407 44.5602 32.7855 44.5663L32.2023 44.6311L31.7506 44.0506L31.5391 43.486L31.7047 42.3261C31.7173 42.2377 31.7009 42.1476 31.658 42.0693C31.6151 41.991 31.548 41.9287 31.4667 41.8918L29.7393 41.1066L29.8008 40.1222L31.3812 38.7912C31.4111 38.766 31.4372 38.7367 31.4589 38.7042L32.2513 37.5156L32.979 38.3038C33.041 38.3709 33.1234 38.4156 33.2135 38.4308C33.3035 38.4461 33.3961 38.431 33.4767 38.3881L34.749 37.7097L36.6422 37.6237C36.7157 37.6203 36.7869 37.5975 36.8485 37.5574C36.9102 37.5174 36.96 37.4616 36.9929 37.3958L37.621 36.1396L38.4659 34.6188L40.177 33.5921C40.2544 33.5456 40.3145 33.4751 40.348 33.3912L41.5538 30.3767L43.0389 29.6343C43.125 29.5912 43.1934 29.5193 43.2322 29.4311C43.271 29.3429 43.2777 29.244 43.2512 29.1513L43.1357 28.7472L45.0484 26.7512C45.1091 26.6879 45.1481 26.607 45.1597 26.5201L45.3404 25.1657C45.3449 25.1316 45.3451 25.0971 45.341 25.0629L45.1936 23.8115L47.5584 22.5883C47.6075 22.563 47.651 22.528 47.6864 22.4855C47.7217 22.443 47.7482 22.3938 47.7641 22.3409C47.7801 22.288 47.7853 22.2324 47.7794 22.1774C47.7735 22.1224 47.7567 22.0692 47.7298 22.0209L47.2783 21.2083C47.2446 21.1475 47.196 21.0962 47.1371 21.0592C47.0783 21.0222 47.011 21.0007 46.9416 20.9966L45.5932 20.9173L43.9109 18.7541L43.9878 17.8312C43.9928 17.7714 43.9846 17.7112 43.964 17.6548C43.9433 17.5984 43.9107 17.5473 43.8682 17.5048L43.5796 17.2165L44.1775 16.4194C44.216 16.368 44.242 16.3085 44.2535 16.2453C44.265 16.1822 44.2616 16.1173 44.2436 16.0557C44.2256 15.9941 44.1935 15.9376 44.1499 15.8906C44.1063 15.8435 44.0523 15.8073 43.9922 15.7848L43.4024 15.5636L42.9195 14.779L43.9357 13.695H44.3489L48.4634 14.4999C48.5469 14.5164 48.6335 14.5066 48.7112 14.4719L52.9551 12.5757C53.0105 12.551 53.0597 12.5144 53.0993 12.4685C53.139 12.4226 53.168 12.3685 53.1844 12.3101C53.2008 12.2518 53.2041 12.1905 53.1941 12.1307C53.1842 12.0709 53.1611 12.014 53.1267 11.9641L51.3206 9.34543C51.2866 9.2961 51.2422 9.25477 51.1906 9.22429C51.139 9.19382 51.0814 9.17493 51.0218 9.16896L50.2263 9.08949L49.6496 8.68586L49.844 7.97287C49.8716 7.87164 49.8596 7.76369 49.8105 7.67096L48.9979 6.13589C48.9628 6.06958 48.9102 6.01413 48.8459 5.97545C48.7816 5.93676 48.708 5.91631 48.633 5.91632H47.8306L45.4819 4.69839C45.4205 4.66666 45.352 4.65086 45.2829 4.65245L45.2832 4.65611ZM45.2683 5.52175L47.5402 6.69975C47.5989 6.73026 47.6642 6.7462 47.7303 6.74623H48.3847L49.0047 7.91716L48.7767 8.75296C48.7543 8.83502 48.7579 8.92198 48.7868 9.00196C48.8158 9.08193 48.8687 9.15099 48.9384 9.19975L49.8413 9.83194C49.8993 9.87251 49.9667 9.89752 50.0371 9.90454L50.7497 9.97594L52.165 12.0282L48.494 13.6686L44.4686 12.8809C44.4425 12.8758 44.416 12.8731 44.3894 12.8731H43.7572C43.7008 12.8731 43.6449 12.8847 43.5931 12.9071C43.5413 12.9296 43.4946 12.9624 43.456 13.0036L42.1013 14.4483C42.0394 14.5144 42.0009 14.5991 41.9918 14.6892C41.9827 14.7794 42.0035 14.87 42.051 14.9472L42.7734 16.1211C42.8215 16.1992 42.8942 16.2591 42.9801 16.2913L43.1864 16.3688L42.7045 17.0114C42.6448 17.0909 42.6159 17.1893 42.6229 17.2884C42.6299 17.3876 42.6725 17.4808 42.7428 17.5512L43.1491 17.9575L43.0747 18.8501C43.0661 18.9535 43.0967 19.0563 43.1604 19.1381L45.0566 21.5761C45.0927 21.6225 45.1383 21.6607 45.1903 21.688C45.2423 21.7154 45.2996 21.7313 45.3583 21.7348L46.6669 21.8119L46.8016 22.0542L44.5608 23.2133C44.4862 23.2518 44.4252 23.3122 44.3858 23.3863C44.3464 23.4605 44.3306 23.5449 44.3404 23.6282L44.515 25.1119L44.3589 26.2812L42.3754 28.351C42.3255 28.4031 42.2901 28.4674 42.2727 28.5375C42.2554 28.6075 42.2567 28.6809 42.2766 28.7503L42.3629 29.0528L41.0441 29.7121C40.9537 29.7573 40.8829 29.8341 40.8453 29.928L39.6329 32.9595L37.9461 33.9716C37.8841 34.0088 37.8329 34.0618 37.7977 34.125L36.8948 35.7504C36.8919 35.7556 36.889 35.7608 36.8863 35.7661L36.3627 36.8136L34.6183 36.8929C34.5569 36.8956 34.4969 36.9121 34.4426 36.941L33.3697 37.5133L32.5025 36.5736C32.4601 36.5277 32.4078 36.492 32.3496 36.4692C32.2915 36.4464 32.2289 36.4371 32.1666 36.442C32.1043 36.4469 32.0439 36.4659 31.99 36.4975C31.9361 36.5292 31.8901 36.5726 31.8554 36.6246L30.8044 38.201L29.1337 39.6078C29.0909 39.6438 29.0559 39.688 29.0308 39.7379C29.0057 39.7878 28.9909 39.8423 28.9875 39.898L28.8973 41.3427C28.8921 41.4262 28.9124 41.5093 28.9554 41.5811C28.9985 41.6528 29.0623 41.7098 29.1385 41.7445L30.8434 42.5193L30.7067 43.4773C30.6969 43.5458 30.7045 43.6158 30.7288 43.6806L30.9996 44.403C31.0143 44.4421 31.0347 44.4787 31.0603 44.5116L31.6925 45.3244C31.7358 45.3801 31.7927 45.4237 31.8577 45.4512C31.9228 45.4786 31.9937 45.489 32.0639 45.4813L32.4498 45.4381L32.5093 46.2739C32.5135 46.3325 32.5301 46.3895 32.5581 46.4411L33.651 48.4585L33.3348 49.5337H33.0116C33.0014 49.5333 32.9913 49.5333 32.9811 49.5337L30.5749 49.7119L27.266 49.4435C27.21 49.4389 27.1536 49.4459 27.1004 49.4639C27.0471 49.4819 26.9981 49.5106 26.9563 49.5482L26.2122 50.2178L24.4346 49.8137C24.374 49.7999 24.3111 49.8 24.2506 49.8139C24.19 49.8278 24.1334 49.8551 24.0849 49.8939L23.5808 50.2972L22.6355 48.4062C22.6042 48.3438 22.5576 48.2903 22.5 48.2508L21.2718 47.4063L21.4092 46.582C21.4189 46.5234 21.416 46.4634 21.4005 46.4061C21.3849 46.3487 21.3572 46.2954 21.3192 46.2497L20.4163 45.1661C20.3716 45.1126 20.3142 45.0712 20.2492 45.0458C20.1843 45.0205 20.114 45.012 20.0449 45.0211L13.9313 45.8303H11.4302C11.4147 45.8294 11.3992 45.8294 11.3838 45.8303L6.59806 46.3721C6.59403 46.3721 6.58999 46.3721 6.58596 46.3721L5.90825 46.4688L6.566 43.3995L7.72342 42.4736L10.1484 42.0405C10.2236 42.027 10.2936 41.993 10.3506 41.9422C10.4076 41.8913 10.4494 41.8257 10.4714 41.7525L11.013 39.9466C11.0302 39.8891 11.0347 39.8285 11.0262 39.7691C11.0176 39.7097 10.9962 39.6528 10.9635 39.6025C10.9307 39.5522 10.8874 39.5096 10.8365 39.4778C10.7856 39.446 10.7284 39.4256 10.6688 39.4181L9.55331 39.2788L9.22282 35.7263C9.21607 35.6538 9.19029 35.5844 9.14808 35.5251C9.10587 35.4657 9.04874 35.4187 8.98246 35.3885L7.98918 34.9371C7.98439 34.9349 7.97955 34.9329 7.97468 34.9309L6.11656 34.1709L5.01339 32.3038C5.00671 32.2926 4.99952 32.2818 4.99183 32.2713L4.34173 31.3774L8.03842 32.7216C8.10814 32.7471 8.18344 32.7532 8.25639 32.7395L11.527 32.1207L13.1718 32.3804C13.2423 32.3915 13.3145 32.3842 13.3813 32.3591L14.725 31.8552L15.7921 32.0193C15.8531 32.0287 15.9153 32.0243 15.9744 32.0064L19.8574 30.8327C19.9376 30.8084 20.0086 30.7602 20.0608 30.6946C20.113 30.6291 20.1441 30.5491 20.1498 30.4655L20.4071 26.6913L21.5939 25.8753L24.1898 25.7024C24.277 25.6966 24.3602 25.6632 24.4272 25.6072C24.4943 25.5511 24.5419 25.4752 24.5631 25.3904L24.7135 24.7885L25.5535 24.0187L26.6696 24.2279L27.2114 24.7697C27.2857 24.844 27.3856 24.8871 27.4906 24.8903C27.5956 24.8935 27.6979 24.8566 27.7766 24.7871L29.3117 23.4327C29.3534 23.3959 29.3872 23.3511 29.4111 23.301C29.4351 23.2508 29.4486 23.1964 29.451 23.1409L29.5392 21.1126L30.0094 19.4674L32.3379 18.6356C32.3961 18.6148 32.4489 18.5812 32.4924 18.5372C32.5359 18.4933 32.5689 18.4401 32.5891 18.3817C32.6093 18.3233 32.6162 18.2611 32.6091 18.1997C32.6021 18.1383 32.5813 18.0792 32.5484 18.0269L31.4366 16.2609L32.4492 16.3113C32.4637 16.312 32.4783 16.312 32.4928 16.3111L34.1182 16.2208C34.2075 16.2158 34.2928 16.182 34.3613 16.1244C34.4297 16.0668 34.4776 15.9885 34.4977 15.9013L34.7685 14.7274C34.7874 14.6454 34.7808 14.5594 34.7495 14.4812L34.4916 13.8366L36.6389 11.7719C36.6933 11.7197 36.7323 11.6535 36.7517 11.5807C36.7712 11.5078 36.7703 11.431 36.7492 11.3586L36.1171 9.19138C36.0915 9.1036 36.0375 9.02678 35.9636 8.97297L35.4317 8.58623L37.2023 7.31146L38.9866 6.37685L43.2239 6.28857C43.2725 6.28766 43.3205 6.27815 43.3658 6.26054L45.2683 5.51607V5.52175Z" stroke="#F9FAFB" stroke-width="0.6" mask="url(#path-1-outside-1_1477_48433)"/>
</g>
</g>
</g>
</svg>
