<svg width="50" height="52" viewBox="0 0 50 52" fill="none" xmlns="http://www.w3.org/2000/svg">
<g id="Group">
<path id="Vector" d="M24.8936 0.611335C24.7791 0.610885 24.6657 0.632985 24.5598 0.676372C24.4538 0.71976 24.3575 0.783585 24.2763 0.864205C24.195 0.944824 24.1304 1.04066 24.0862 1.14624C24.042 1.25181 24.019 1.36507 24.0186 1.47953V7.83606V11.874L0.95187 21.9519C0.795822 22.0204 0.663306 22.1333 0.570717 22.2764C0.478129 22.4195 0.429531 22.5866 0.430938 22.7571V27.2223C0.431862 27.4535 0.524566 27.6748 0.688659 27.8376C0.852752 28.0004 1.0748 28.0914 1.30595 28.0905H2.74104V49.4191H1.30595C1.19149 49.4187 1.07806 49.4408 0.972143 49.4841C0.866222 49.5275 0.769885 49.5914 0.688632 49.672C0.607378 49.7526 0.542801 49.8484 0.498585 49.954C0.45437 50.0596 0.431383 50.1728 0.430938 50.2873C0.430488 50.4023 0.452814 50.5163 0.496628 50.6227C0.540443 50.7291 0.604879 50.8257 0.686222 50.907C0.767565 50.9884 0.864205 51.0528 0.97057 51.0966C1.07693 51.1404 1.19092 51.1628 1.30595 51.1623H3.61602H46.1711H48.4812C48.5956 51.1619 48.7089 51.1389 48.8145 51.0947C48.92 51.0504 49.0159 50.9859 49.0965 50.9046C49.1771 50.8234 49.2409 50.727 49.2843 50.6211C49.3277 50.5152 49.3498 50.4018 49.3494 50.2873C49.3485 50.0573 49.2567 49.837 49.0941 49.6744C48.9315 49.5118 48.7112 49.42 48.4812 49.4191H47.0393V28.0905H48.4812C48.7112 28.0896 48.9314 27.9978 49.0941 27.8352C49.2567 27.6726 49.3485 27.4523 49.3494 27.2223V22.7571C49.3508 22.5866 49.3022 22.4195 49.2096 22.2764C49.117 22.1333 48.9845 22.0204 48.8285 21.9519L25.7617 11.874V8.70426H34.4488C34.6788 8.70334 34.8991 8.61157 35.0617 8.44896C35.2243 8.28634 35.3161 8.06604 35.317 7.83606V1.47953C35.3161 1.24955 35.2243 1.02925 35.0617 0.866636C34.8991 0.704017 34.6788 0.612253 34.4488 0.611335H24.8936ZM25.7617 2.34772H33.5789V6.96106H25.7617V2.34772ZM24.8936 13.3959L47.6062 23.3222V26.3473H2.17415V23.3222L24.8936 13.3959ZM24.8102 17.2432C23.0826 17.2876 21.6762 18.7232 21.6762 20.4606C21.6762 22.2256 23.1286 23.6712 24.8936 23.6712C26.6587 23.6712 28.1043 22.2256 28.1043 20.4606C28.1043 18.6957 26.6587 17.2432 24.8936 17.2432C24.8673 17.2432 24.8376 17.2425 24.8102 17.2432ZM24.8936 18.9864C25.7169 18.9864 26.361 19.6382 26.361 20.4606C26.361 21.283 25.7169 21.9263 24.8936 21.9263C24.0702 21.9263 23.4193 21.283 23.4193 20.4606C23.4193 19.6382 24.0702 18.9864 24.8936 18.9864ZM4.48422 28.0905H45.2961V49.4191H41.2105V35.7595C41.2105 33.8257 39.6699 32.2153 37.7547 32.2153C35.8396 32.2153 34.3058 33.8257 34.3058 35.7595V49.4191H28.3425V35.7595C28.3425 33.8257 26.8087 32.2153 24.8936 32.2153C22.9784 32.2153 21.4378 33.8257 21.4378 35.7595V49.4191H15.4796V35.7595C15.4796 33.8257 13.9407 32.2153 12.0256 32.2153C10.1104 32.2153 8.56985 33.8257 8.56985 35.7595V49.4191H4.48422V28.0905ZM12.0256 33.9585C12.9703 33.9585 13.7364 34.7287 13.7364 35.7595V49.4191H10.3147V35.7595C10.3147 34.7287 11.0809 33.9585 12.0256 33.9585ZM24.8936 33.9585C25.8383 33.9585 26.5976 34.7287 26.5976 35.7595V49.4191H23.1827V35.7595C23.1827 34.7287 23.9488 33.9585 24.8936 33.9585ZM37.7547 33.9585C38.6995 33.9585 39.4673 34.7287 39.4673 35.7595V49.4191H36.0507V35.7595C36.0507 34.7287 36.81 33.9585 37.7547 33.9585Z" fill="#F9FAFB"/>
</g>
</svg>
