<svg width="45" height="34" viewBox="0 0 45 34" fill="none" xmlns="http://www.w3.org/2000/svg">
<g id="Group 48095405">
<path id="Vector" d="M21.6328 32.6311C19.9657 32.6155 18.3292 32.1823 16.8728 31.3711L9.38275 27.3198C9.01481 27.1126 8.70839 26.8114 8.49473 26.4471C8.28108 26.0828 8.16782 25.6684 8.1665 25.2461V15.0348C8.1665 14.8028 8.25869 14.5802 8.42279 14.4161C8.58688 14.252 8.80944 14.1598 9.0415 14.1598C9.27357 14.1598 9.49613 14.252 9.66022 14.4161C9.82432 14.5802 9.9165 14.8028 9.9165 15.0348V25.2461C9.91687 25.3618 9.94782 25.4753 10.0062 25.5752C10.0646 25.6751 10.1484 25.7578 10.249 25.8148L17.7128 29.9011C18.8204 30.5048 20.0515 30.847 21.3119 30.9016C22.5722 30.9562 23.8283 30.7217 24.984 30.2161L35.3528 25.6398C35.4648 25.5881 35.5598 25.5055 35.6264 25.4016C35.6931 25.2978 35.7287 25.177 35.729 25.0536V14.7461C35.729 14.514 35.8212 14.2915 35.9853 14.1274C36.1494 13.9633 36.3719 13.8711 36.604 13.8711C36.8361 13.8711 37.0586 13.9633 37.2227 14.1274C37.3868 14.2915 37.479 14.514 37.479 14.7461V25.0273C37.4781 25.4908 37.343 25.9441 37.0898 26.3323C36.8367 26.7206 36.4765 27.0271 36.0528 27.2148L25.684 31.7911C24.4073 32.3517 23.0271 32.6378 21.6328 32.6311Z" fill="#F9FAFB"/>
<path id="Vector_2" d="M22.315 21.8852C21.2268 21.8876 20.1535 21.6327 19.1825 21.1414L1.91002 12.3914C1.65028 12.2474 1.43437 12.0358 1.2852 11.779C1.13602 11.5222 1.05915 11.2298 1.06274 10.9328C1.06633 10.6359 1.15024 10.3454 1.30558 10.0923C1.46091 9.83918 1.68188 9.63283 1.94502 9.49515L19.7863 1.0514C20.7342 0.597431 21.7733 0.366159 22.8242 0.375258C23.8752 0.384358 24.9101 0.633586 25.85 1.1039L43.0963 9.68765C43.3692 9.82311 43.5988 10.0321 43.7594 10.291C43.9199 10.55 44.005 10.8486 44.005 11.1533C44.005 11.458 43.9199 11.7566 43.7594 12.0155C43.5988 12.2745 43.3692 12.4834 43.0963 12.6189L25.3338 21.1939C24.3933 21.6511 23.3608 21.8875 22.315 21.8852ZM2.91627 10.9477L19.97 19.5839C20.6868 19.9335 21.4738 20.1151 22.2713 20.1151C23.0687 20.1151 23.8557 19.9335 24.5725 19.5839L42.0725 11.0877L25.0713 2.6439C24.3685 2.29353 23.5953 2.10753 22.8101 2.09995C22.0248 2.09237 21.2482 2.26342 20.5388 2.60015L2.91627 10.9477Z" fill="#F9FAFB"/>
<path id="Vector_3" d="M3.80014 23.889C3.56808 23.889 3.34552 23.7968 3.18142 23.6327C3.01733 23.4686 2.92514 23.2461 2.92514 23.014L2.64514 11.429L22.4551 10.2478C22.5701 10.2407 22.6853 10.2563 22.7942 10.2938C22.9031 10.3314 23.0035 10.39 23.0897 10.4664C23.1758 10.5428 23.2461 10.6355 23.2964 10.7391C23.3466 10.8428 23.376 10.9553 23.3826 11.0703C23.3897 11.1852 23.3741 11.3004 23.3366 11.4093C23.299 11.5182 23.2404 11.6186 23.164 11.7048C23.0876 11.791 22.9949 11.8612 22.8913 11.9115C22.7876 11.9617 22.6751 11.9911 22.5601 11.9978L4.43889 13.074L4.67514 22.9878C4.67514 23.2198 4.58295 23.4424 4.41886 23.6065C4.25477 23.7706 4.03221 23.8628 3.80014 23.8628V23.889Z" fill="#F9FAFB"/>
<path id="Vector_4" d="M3.83484 28.6755C3.22395 28.6755 2.62677 28.4944 2.11883 28.155C1.61089 27.8156 1.21499 27.3332 0.981212 26.7688C0.747432 26.2044 0.686264 25.5834 0.805445 24.9842C0.924625 24.3851 1.2188 23.8347 1.65077 23.4027C2.08274 22.9708 2.6331 22.6766 3.23226 22.5574C3.83142 22.4382 4.45246 22.4994 5.01686 22.7332C5.58125 22.9669 6.06365 23.3628 6.40305 23.8708C6.74244 24.3787 6.92359 24.9759 6.92359 25.5868C6.92359 26.406 6.59817 27.1916 6.01892 27.7709C5.43967 28.3501 4.65403 28.6755 3.83484 28.6755ZM3.83484 24.248C3.57007 24.248 3.31123 24.3266 3.09108 24.4737C2.87092 24.6208 2.69933 24.8299 2.598 25.0745C2.49667 25.3191 2.47016 25.5883 2.52182 25.848C2.57347 26.1077 2.70098 26.3462 2.88821 26.5334C3.07543 26.7207 3.31398 26.8482 3.57367 26.8998C3.83336 26.9515 4.10254 26.925 4.34716 26.8236C4.59179 26.7223 4.80087 26.5507 4.94798 26.3306C5.09508 26.1104 5.17359 25.8516 5.17359 25.5868C5.1713 25.2324 5.02952 24.8933 4.77895 24.6427C4.52838 24.3921 4.1892 24.2503 3.83484 24.248Z" fill="#F9FAFB"/>
<path id="Vector_5" d="M7.545 33.9964H0.125L2.26875 27.3726C2.30354 27.2627 2.35971 27.1608 2.43403 27.0726C2.50834 26.9845 2.59934 26.9119 2.70179 26.8591C2.80424 26.8062 2.91612 26.7742 3.03101 26.7647C3.1459 26.7552 3.26152 26.7685 3.37125 26.8039C3.5698 26.8714 3.73748 27.0081 3.84375 27.1889C3.9543 27.0048 4.1287 26.8677 4.33375 26.8039C4.55422 26.7352 4.79291 26.7564 4.99779 26.8629C5.20268 26.9695 5.35713 27.1527 5.4275 27.3726L7.545 33.9964ZM2.53125 32.2464H5.15625L3.8525 28.1689L2.53125 32.2464Z" fill="#F9FAFB"/>
</g>
</svg>
